<?xml version="1.0" encoding="utf-8"?>
<!-- Generator: Adobe Illustrator 22.0.1, SVG Export Plug-In . SVG Version: 6.00 Build 0)  -->
<svg version="1.1" id="Слой_1" xmlns="http://www.w3.org/2000/svg" xmlns:xlink="http://www.w3.org/1999/xlink" x="0px" y="0px"
	 viewBox="0 0 141.7 141.7" style="enable-background:new 0 0 141.7 141.7;" xml:space="preserve">
<style type="text/css">
	.st0{fill:#0E0F0F;}
</style>
<g id="Objects">
	<g>
		<path class="st0" d="M138,20.1c-4.6-6.8-15.4-11-26.9-5.9c-13.5,6-13.1,22.3-9.6,34.1s18,29,20.4,40.5c1.7,7.9-3.7,19.9-13.4,27.9
			c0-4.2,0.8-13.4-2.3-29.6c-4-20.8-12.3-30.2-21.9-35.8c-9.7-5.6-18.8-3.8-25.6-5.4C51.8,44.2,52,32.7,48.1,24
			c-3.8-8.3-8.4-11.1-12-13.7c-3.6-2.6-5-3.8-6.6-5c-1.7-1.3-5.8-4.1-6.5-4.1c-0.7,0.1-0.7,1.4-1.1,1.6c-0.4,0.2-1.7-1.4-2.3-2
			c-0.6-0.5-1.8-1.3-2.2-0.5c-0.4,0.8,2.6,7.2,2.2,8c-0.4,0.8-1,0.8-4,1.6s-7.5,5.5-8.6,6.9s-2.3,6.3-2.9,7.3
			c-0.6,1-2.1,2.5-2.7,3.1S0.1,28.8,0,29.9s0.5,1.9,1,2.2c0.5,0.4,0.1,1.3,0.5,2.1c0.5,0.8,1.2,1.3,1.6,1.6c0.4,0.3-0.3,1,1.2,2.7
			c1.5,1.6,8.3,1.9,10.1,3.7c1.8,1.8,1.4,6.2,1.4,8.6c-0.1,2.4-3.2,7.7-3.5,12.2s5.8,17.1,9.1,20.5s8.3,13.8,8.2,16.2
			c-0.1,2.3-1.4,7.5-2.1,10.2c-0.7,2.7-1.3,10.1-1.9,10.8c-0.6,0.6-4.6,1.2-5.9,2.3c-1.3,1-1.5,3.1-0.1,5.3c1.4,2.3,4,1.9,4,1.9
			s-1.3,0.9-1.9,2.3c-0.6,1.3-0.3,3.7,1.2,4.4c1.5,0.7,8.9,1.2,11.1,1c2.3-0.2,3.3-0.8,5.1-2.6c1.7-1.7,2.1-5.9,2.5-6.3
			c0.4-0.4,3.2,0.8,5.7,0.9c2.5,0.1,8.9,0.4,8.9,0.4l1.3,1c0,0-3.1,1.9-3.8,4.5c-0.6,2.7,0.6,4.5,3.4,5.4c2.7,1,8.2-0.3,9.9-1
			c1.7-0.7,3.5,0.4,7.6,0.4c4.2,0,13.7-1.6,19.9-1.9c6.2-0.3,4.3-1,5.6-2.1c1.3-1.1,2.3-0.7,6.1-3.7c0.9-0.8,1.6-1.9,2.1-3.2
			c1.2-0.5,2.3-1,3.5-1.6c15.6-7.9,35.2-32,6.4-69.7c-8-10.5-10.3-24.2-7.1-30.7c3.2-6.5,12.3-8.3,18.5-3.3
			c6.2,4.9,3.9,11.1,1.9,12.9c-2.1,1.7-11.4,2.7-7.9,9.3c1.8,3.3,10.3,1.2,14.9-5C143.1,35.4,142.6,26.9,138,20.1z"/>
	</g>
</g>
</svg>
